<?xml version="1.0" encoding="utf-8" ?><svg xmlns="http://www.w3.org/2000/svg" xmlns:xlink="http://www.w3.org/1999/xlink" width="1259" height="406" viewBox="0 0 1259 406"><path fill="#690000" transform="scale(2.45898 2.46061)" d="M35.5401 6.34774C38.6224 5.77844 47.6374 6.20984 51.1002 6.2154L82.5687 6.24602L124.79 6.27689C132.189 6.26753 140.336 5.95283 147.652 6.59567C155.93 7.32297 164.649 15.8802 164.976 24.2996C165.202 30.1288 165.054 36.5581 165.051 42.5069L165.009 80.9264L165.237 117.908C165.244 124.302 165.694 132.228 164.636 138.37C163.212 146.634 154.618 153.415 146.56 154.119C144.519 154.606 132.876 154.248 130.132 154.253L91.1421 154.274L53.1165 154.269C47.0501 154.255 40.4116 154.37 34.3931 153.983C31.4017 153.791 26.9374 151.442 24.6153 149.607C21.0856 146.818 17.8633 141.641 17.4749 137.084C16.8953 130.284 17.0215 122.989 16.9867 116.113L16.9721 77.0681L16.9752 42.5472C16.9862 36.4753 16.8193 29.934 17.3159 23.9082C17.6117 20.3182 19.0119 17.1758 21.2783 14.3426C24.7811 9.8886 29.9127 7.01194 35.5401 6.34774ZM22.7486 115.593C31.9271 110 40.9547 103.072 49.8478 97.5869C44.4503 91.3897 41.2901 80.6934 42.1853 72.6566C42.7909 67.2205 44.1184 62.0571 44.3164 56.4329C44.5244 50.5259 49.7918 42.7619 54.2115 39.059C55.4452 37.973 57.4906 36.4356 58.5474 35.3564C63.3962 30.4048 66.3333 27.049 73.1796 24.7958C75.7103 23.963 79.8136 23.5415 81.6226 22.908C87.004 21.0233 89.6515 19.8599 95.5789 20.2583C99.3467 20.5115 102.477 21.9717 106.084 22.8018C107.787 23.1937 110.517 23.0859 112.422 23.5564C119.618 25.3336 122.857 29.6599 128.025 34.0954C130.622 36.3248 134.657 37.6628 137.348 41.2378C139.616 44.2498 140.127 45.0098 141.047 48.6611C139.603 47.8531 135.727 46.2478 135.01 45.7137C131.314 42.9589 130.09 41.0348 125.869 38.6348C124.526 42.5625 123.057 41.695 119.322 41.419C120.149 39.2865 120.804 37.7045 122.168 35.7977C117.208 30.74 114.384 29.2605 107.395 27.9898C107.588 30.374 108.767 41.0313 108.117 42.5466C107.035 43.5381 105.143 44.1027 103.75 45.0151C103.218 40.4587 102.565 31.8297 102.475 27.3112C97.588 25.8383 94.0414 24.7943 88.786 25.9753C87.2994 26.3093 85.8712 26.8961 84.4522 27.2663C86.481 29.7194 87.9365 32.6698 89.7654 35.2462C93.1037 39.9488 96.0046 45.753 99.5444 50.2158C106.826 44.3131 104.995 45.6319 114.794 45.4016C115.843 45.3769 118.275 44.4303 119.942 44.3334C124.178 44.2522 126.026 46.0703 129.781 47.2239C132.919 48.1879 136.261 47.6866 138.822 50.1661C140.599 51.8872 141.076 54.3383 141.093 56.7234C141.148 64.823 135.407 68.2747 135.233 70.1676C137.995 70.9309 140.763 71.6728 143.536 72.393C143.553 68.5883 143.325 65.1342 143.238 61.3708C143.193 59.4146 143.702 56.2097 143.818 54.1557C145.198 56.4614 147.634 60.3227 148.113 62.7681C149.477 69.7426 148.864 80.7142 147.907 87.5652C147.549 90.1244 138.788 105.971 137.071 108.139C135.187 110.5 132.899 112.508 130.315 114.071C126.098 116.567 122.267 117.96 118.126 121.051C113.586 124.44 105.676 124.519 100.025 124.172C98.2363 126.912 96.1234 129.135 94.3433 131.676C96.2544 133.826 98.2287 136.461 100.021 138.75C108.13 138.731 117.749 138.22 119.718 148.531C123.751 148.468 127.784 148.501 131.816 148.633C138.96 148.856 149.403 149.906 154.877 144.739C160.926 139.03 159.306 128.7 159.305 121.004L159.308 90.5433C159.119 70.3897 159.614 50.1848 159.461 30.0318C159.419 24.4549 158.938 19.9044 154.636 15.9003C148.985 10.6393 139.036 11.6984 131.925 11.7073L108.396 11.7255L62.1044 11.736C54.3846 11.7403 46.6479 11.6869 38.9294 11.7589C38.4797 11.7631 37.2504 11.7775 36.8368 11.8315C30.4041 12.6829 24.0879 16.7873 23.0508 23.6735C22.4932 27.3761 22.6909 31.4634 22.6994 35.231L22.7234 51.0448L22.7037 99.3212C22.6889 104.71 22.8476 110.233 22.7486 115.593ZM78.375 62.0127C81.7978 62.0153 85.3488 62.0666 88.7601 61.9613L89.852 58.0732C80.6696 52.558 71.2699 47.4002 62.2286 41.6304C61.6508 41.2617 61.1673 40.9434 60.5092 40.7422C52.2331 44.7929 49.5119 53.2489 48.9708 61.792C58.7621 61.7191 68.5442 62.0084 78.375 62.0127ZM114.709 148.864C108.342 140.288 105.8 145.779 97.7338 143.589C96.2794 143.194 88.5095 133.205 88.508 131.111C88.4612 129.746 92.031 126.773 92.9059 125.516L92.7381 125.342C90.7783 125.416 87.9238 125.609 86.0233 125.383C84.8327 125.241 82.0296 124.181 80.9056 124.105L80.8739 124.191C79.6562 127.438 74.4411 131.903 77.3236 135.086C81.2643 139.439 85.3998 143.823 89.5138 148.021C90.7348 149.284 101.204 149.234 102.069 148.513C102.487 141.132 107.428 146.396 110.827 148.447C112.151 148.624 113.369 148.792 114.709 148.864ZM47.9709 66.8895C46.0156 77.8527 47.0984 85.0633 53.7498 94.5321C53.7815 94.5771 53.8135 94.622 53.8458 94.6667C60.4938 90.7313 67.2456 85.9054 73.8923 81.7809C78.2285 78.851 83.1416 76.2493 87.1961 73.4164L87.607 66.8775C83.348 67.3232 71.8457 67.0273 67.1246 67.0267L54.6009 67.0072C52.7481 66.9989 49.6713 67.0764 47.9709 66.8895ZM123.526 111.832C125.503 110.955 126.808 110.338 128.648 109.17C132.413 106.56 135.275 102.845 136.839 98.5388C131.593 93.9146 126.637 88.9086 121.581 84.1103C119.84 86.6582 117.742 88.7904 116.074 91.2673C118.432 97.8227 121.4 105.369 123.526 111.832ZM56.3202 99.2312C59.1852 105.934 64.6392 111.193 71.4416 113.812C72.0111 114.032 72.5879 114.232 73.1711 114.413C78.2444 107.051 83.1919 99.6029 88.0116 92.0726C90.7463 87.8563 93.6966 82.863 96.8738 79.0532C97.9101 77.8106 105.004 78.5509 107.285 77.9107C110.507 77.0061 115.777 72.0092 118.627 73.1312C119.588 73.8947 120.017 75.749 119.101 76.5888C114.168 81.1104 106.452 84.5536 99.6964 83.2976C92.5061 94.4153 84.4745 105.85 77.5737 117.101C80.8776 118.744 82.5039 119.718 86.1929 120.212C87.3572 120.179 87.3496 120.362 88.3801 119.648C94.6321 115.317 101.278 85.6269 106.789 83.9552C110.204 83.9428 109.556 86.8476 108.377 88.9276C103.172 98.1092 100.752 110.994 94.7761 119.568C99.4539 117.395 101.989 114.822 103.693 109.871C108.667 95.4226 111.247 86.2307 122.82 75.5215C124.429 74.0331 134.037 63.5843 135.178 61.8844C127.401 65.8772 118.779 68.5487 110.708 71.9113C109.349 72.4775 108.133 71.7241 107.524 70.4832C107.515 69.7578 107.726 69.3291 108.234 68.8105C110.251 66.751 127.481 60.4828 131.488 58.8131C132.669 58.3212 134.628 57.8509 135.617 57.1291C136.149 56.7408 136.159 56.2099 136.27 55.6138C136.092 54.8589 135.825 54.4571 135.152 54.052C133.235 52.8987 112.168 50.444 109.517 50.8105C108.677 51.041 107.798 51.2735 107.02 51.671C105.05 52.677 103.264 54.1155 101.365 55.2587C99.7235 56.2466 97.875 56.9863 96.3488 58.1481C95.5184 58.7803 94.7226 59.5629 94.1994 60.4734C91.4875 65.1923 93.1486 73.3031 91.3649 76.4148C90.6073 77.7365 66.596 92.8164 62.8194 95.201C60.7008 96.5386 58.3023 97.7142 56.3202 99.2312ZM63.6465 37.0394C66.8659 37.8071 80.1659 46.5291 84.5665 49.0069C86.2862 50.0291 87.9829 51.0742 89.6972 52.1027C91.1806 52.9926 93.2086 54.4153 94.6309 52.8736C94.7981 51.4703 81.6551 32.2125 79.9407 29.0249L79.386 28.8066C72.0362 30.5555 69.1824 31.3456 63.6465 37.0394ZM125.211 80.5975C127.588 82.8274 137.2 91.658 138.838 93.8008L139.164 94.1559C140.404 93.4614 142.282 88.5879 142.671 87.202C143.623 83.806 143.614 81.0472 143.464 77.6057C140.37 77.3122 132.869 74.5392 131.208 74.5478C129.18 75.9642 126.821 78.7233 125.211 80.5975ZM113.13 98.2021C110.746 104.287 107.96 114.992 104.182 119.424C105.87 119.142 109.398 118.938 110.613 118.545C114.12 117.835 116.484 116.844 119.348 114.577C118.215 112.34 113.684 98.6344 113.13 98.2021ZM62.9375 148.508C67.3454 148.504 80.1322 148.219 83.8689 148.938C80.5741 146.15 77.4154 142.981 74.3511 139.935C73.9743 139.561 72.5982 137.964 72.2992 137.792C68.5695 140.481 63.3981 142.712 58.9662 143.978C57.4921 144.399 54.8623 144.904 53.5869 145.387C52.8706 146.491 52.1876 147.615 51.5387 148.76C53.8886 148.33 60.2566 148.491 62.9375 148.508ZM51.9332 103.223C48.1862 104.986 45.0203 107.406 41.6266 109.738C35.7902 113.75 30.0045 117.905 23.7979 121.331C23.3936 121.554 22.9116 121.777 22.5368 122.029C22.304 130.436 21.5367 137.407 26.6629 144.4C28.3412 144.183 29.5078 143.98 31.1589 143.628C32.0838 142.044 35.3765 133.397 38.4504 138.484C39.3122 139.911 35.2602 147.198 34.2789 148.855C36.4598 148.354 43.9849 148.427 46.3002 148.704C48.4151 142.543 58.4282 130.803 48.8302 126.645C48.5023 126.503 47.5571 126.392 47.1901 126.358C42.1682 126.659 37.971 128.326 33.0692 129.144C31.3749 129.427 29.3978 126.808 30.9867 125.247C34.5212 123.107 43.0956 121.146 46.9998 121.039C53.7878 120.853 58.3259 126.712 58.4983 132.943C58.5737 135 57.4968 137.682 56.6902 139.592C59.4034 138.411 69.6072 134.534 70.8032 132.098C72.6335 128.371 73.5485 125.706 76.4278 121.97C69.6761 117.401 61.2467 116.955 56.3463 109.216C55.8732 108.469 52.3021 103.465 51.9332 103.223Z"/><path fill="#690000" transform="scale(2.45898 2.46061)" d="M109.261 52.0353C110.741 51.8598 112.118 51.7732 113.451 52.5311C114.717 53.2512 115.64 54.4508 116.011 55.8593C116.863 59.0837 114.797 61.8916 111.688 62.6802C105.474 63.1013 101.198 55.6337 109.261 52.0353Z"/><path fill="#690000" transform="scale(2.45898 2.46061)" d="M126.604 53.4859C129.903 54.1384 130.278 55.8408 128.038 58.2954C127.966 58.2798 127.894 58.2641 127.822 58.2484L127.699 58.2148C125.461 57.6178 124.712 55.1717 126.604 53.4859Z"/><path fill="#BDB3B7" fill-opacity="0.56078434" transform="scale(2.45898 2.46061)" d="M98.9007 58.3613C99.8131 58.2932 103.287 58.0876 103.95 58.6411L103.686 58.8783C102.511 58.7858 99.348 59.2707 98.6209 58.6727L98.9007 58.3613Z"/><path fill="#DAD4CD" fill-opacity="0.26666668" transform="scale(2.45898 2.46061)" d="M59.8539 116.689L60.2231 117.128C60.5631 118.514 60.3392 119.507 59.9218 120.828C59.4863 119.348 59.4819 118.175 59.8539 116.689Z"/><path fill="#690000" transform="scale(2.45898 2.46061)" d="M239.661 61.8689C248.819 60.0618 257.705 66.0332 259.492 75.1957C261.278 84.3581 255.287 93.2305 246.121 94.9967C236.983 96.7573 228.145 90.7891 226.364 81.6555C224.583 72.5219 230.531 63.6703 239.661 61.8689ZM243.62 89.0035C247.448 88.7481 250.843 86.455 252.509 82.9996C254.175 79.5442 253.855 75.4599 251.672 72.3059C249.488 69.1519 245.777 67.4151 241.957 67.7586C236.143 68.2812 231.832 73.3839 232.288 79.2032C232.743 85.0225 237.796 89.3921 243.62 89.0035Z"/><path fill="#690000" transform="scale(2.45898 2.46061)" d="M427.29 62.1323C427.53 62.1129 427.77 62.0984 428.01 62.0886C436.038 61.8197 445.541 60.8927 451.623 66.6473C454.695 69.5632 456.473 73.5871 456.56 77.8218C456.685 83.0704 454.73 86.7396 451.219 90.4002C445.546 94.8771 441.909 94.8606 435.009 94.8049C432.295 94.8069 429.582 94.7458 426.872 94.6218C426.745 86.6885 426.736 71.2486 426.903 62.654C427.055 62.4481 427.184 62.2742 427.29 62.1323ZM432.799 89.1905C437.954 89.0992 443.309 90.0574 447.222 86.2482C449.392 83.8229 450.615 81.2127 450.418 77.8705C450.224 74.8936 448.87 72.1115 446.647 70.1218C442.541 66.4997 437.703 68.0029 432.655 67.6938C433.117 72.0943 433.064 84.4264 432.799 89.1905Z"/><path fill="#690000" transform="scale(2.45898 2.46061)" d="M316.676 62.1269C323.609 62.0429 330.542 62.0045 337.475 62.0116C337.741 64.0679 337.677 65.6839 337.641 67.748C333.705 67.4805 326.195 67.7452 322.085 67.7489C322.359 69.6281 322.318 75.5657 322.073 77.3934C326.012 77.106 331.35 77.2633 335.432 77.2139L335.467 82.7845C332.86 82.5287 326.03 82.7774 323.188 82.8041L322.628 82.768C321.793 83.397 322.357 87.2476 322.057 89.1471L322.039 89.256C327.211 89.2006 332.384 89.2108 337.556 89.2864C337.729 90.9683 337.667 93.0111 337.663 94.726C330.503 94.793 323.342 94.796 316.182 94.7349C316.395 90.3551 315.617 63.7256 316.676 62.1269Z"/><path fill="#690000" transform="scale(2.45898 2.46061)" d="M342.867 62.0896C349.454 62.2252 357.356 62.1757 363.95 62.0962L364.034 67.7672C358.967 67.6109 353.656 67.8323 348.517 67.6985C348.891 70.2197 348.511 75.3099 348.898 76.8936C349.175 77.1809 349.475 77.5078 349.926 77.4717C353.892 77.1541 357.754 77.2404 361.73 77.3201L361.756 82.7442C357.695 82.735 353.485 82.6661 349.437 82.8324L348.789 82.8255C348.23 83.6265 348.512 88.1814 348.893 89.0578C351.16 89.3953 360.86 89.2287 364.048 89.3084L364.097 94.732C362.43 94.8575 358.879 94.763 357.127 94.7657L342.76 94.769C342.972 87.3281 342.212 78.7851 342.512 71.2128C342.606 68.8508 342.441 64.2538 342.867 62.0896Z"/><path fill="#690000" transform="scale(2.45898 2.46061)" d="M384.961 62.0831C386.734 62.0118 388.665 62.0176 390.452 61.988C390.783 65.3829 390.98 74.4895 390.407 77.878C393.462 74.5071 401.793 64.0133 404.503 62.0608C405.622 62.0198 409.658 61.689 410.328 62.2965C410.193 63.4331 398.277 77.2345 396.527 79.212C397.896 80.3541 401.56 84.8298 402.89 86.4136C405.309 89.1177 407.423 92.0032 409.964 94.6752C408.323 94.6168 403.537 95.1247 402.603 94.0694C398.9 89.8853 393.863 84.4964 390.639 80.0929C390.937 84.4062 390.759 90.2547 390.735 94.6975L384.664 94.7001C384.71 93.9488 384.709 93.1888 384.687 92.4369C384.433 83.8096 384.525 75.1778 384.524 66.5479C384.524 65.1316 384.455 63.403 384.961 62.0831Z"/><path fill="#690000" transform="scale(2.45898 2.46061)" d="M208.452 61.826C213.299 61.2208 219.1 62.4365 222.985 65.4973C225.178 67.2258 221.711 70.308 220.368 71.5246C218.189 69.5869 215.497 68.318 212.615 67.8693C206.715 67.0045 201.229 70.974 200.413 76.9009C200.028 79.7424 200.785 82.6205 202.518 84.9054C204.063 86.946 206.366 88.2777 208.906 88.5995C211.953 89.0072 215.533 88.7154 218.047 86.7722C218.629 86.3409 219.807 85.6513 220.463 85.2411C221.628 86.4 224.744 89.4602 223.155 90.9172C217.364 96.2284 207.509 96.6361 201.551 92.3362C188.855 83.1729 193.268 64.4525 208.452 61.826Z"/><path fill="#690000" transform="scale(2.45898 2.46061)" d="M264.538 62.0567C267.483 62.0518 283.507 61.7999 285.456 62.2845C286.303 63.3067 286.031 66.2723 286.009 67.7114C282.361 67.9156 274.145 67.8371 270.481 67.6655C270.7 70.8677 270.691 74.0814 270.456 77.2824C273.31 77.187 281.985 77.5243 283.888 77.2355L284.117 78.0083C283.836 79.0046 284.006 81.5925 284.057 82.7235C280.191 82.9241 274.412 82.8239 270.481 82.7783C270.659 86.6383 270.516 90.8942 270.508 94.7981C268.745 94.6972 266.312 94.7569 264.5 94.751L264.538 62.0567Z"/><path fill="#690000" transform="scale(2.45898 2.46061)" d="M290.558 62.0919C296.315 62.0738 306.081 62.3738 311.529 62.0365C311.704 63.4941 311.732 66.1353 311.784 67.6583C307.044 67.7678 300.91 67.8251 296.216 67.6547C296.372 69.7721 296.344 75.1667 296.204 77.2521C298.575 77.2661 307.492 76.9677 309.268 77.4912C309.599 78.0016 309.51 78.9062 309.51 79.5498L309.494 82.7873C305.249 82.8013 300.396 82.9206 296.201 82.7538C296.45 85.8233 296.302 91.4997 296.311 94.7632C294.786 94.6563 292.06 94.7556 290.442 94.7695C290.489 87.8475 290.273 80.823 290.33 73.8894C290.363 69.992 290.221 65.9715 290.558 62.0919Z"/><path fill="#690000" transform="scale(2.45898 2.46061)" d="M474.734 62.1077L479.432 62.0204C479.816 64.7197 480.04 86.9366 479.533 89.1999C484.757 89.139 489.983 89.1698 495.206 89.2924C495.247 90.7016 495.359 93.2841 495.135 94.5864L494.693 94.8768C488.274 95.1585 480.11 94.9411 473.701 94.787C474.148 87.1263 473.422 70.8038 473.95 62.3847C473.957 62.2787 474.539 62.1612 474.734 62.1077Z"/><path fill="#690000" transform="scale(2.45898 2.46061)" d="M461.606 62.0017C463.234 61.9313 465.615 62.0314 467.299 62.0536C467.628 65.8602 467.509 70.8604 467.508 74.7636L467.489 94.7267L461.502 94.93C461.368 89.3326 461.522 83.4836 461.507 77.8517C461.495 73.0256 461.226 66.7562 461.606 62.0017Z"/><path fill="#690000" transform="scale(2.45898 2.46061)" d="M414.846 62.17C416.747 62.0111 418.279 62.0115 420.178 62.0171C420.214 62.2459 420.244 62.4754 420.269 62.7055C420.625 65.9488 420.639 93.9744 419.961 94.8171L414.582 94.7047C414.652 90.8012 414.101 63.4205 414.846 62.17Z"/><path fill="#DAD4CD" fill-opacity="0.12156863" transform="scale(2.45898 2.46061)" d="M283.888 77.2355L283.857 77.1425C283.27 75.2921 283.957 74.2809 283.924 72.5183C283.9 71.2299 283.561 70.9257 283.765 69.4809L284.034 69.2695C284.38 69.9003 284.296 76.9175 284.117 78.0083L283.888 77.2355Z"/><path fill="#858C83" fill-opacity="0.41960785" transform="scale(2.45898 2.46061)" d="M328.845 57.7028C329.586 58.3591 329.167 59.6663 328.97 60.4882L328.851 60.4894C328.604 59.4654 328.739 58.7424 328.845 57.7028Z"/><path fill="#858C83" fill-opacity="0.47843137" transform="scale(2.45898 2.46061)" d="M283.821 57.9066L284.07 58.1025C284.479 58.7463 284.251 59.5014 284.131 60.2745L283.938 60.118C283.577 59.4874 283.752 58.6546 283.821 57.9066Z"/></svg>