<svg width="47" height="55" viewBox="0 0 47 55" fill="none" xmlns="http://www.w3.org/2000/svg">
<g filter="url(#filter0_d_239_11)">
<path d="M16.1656 21.9547C16.223 21.9509 16.2807 21.9486 16.3384 21.9475C20.4392 21.8966 24.6482 21.9455 28.7609 21.9451L33.4192 21.9445C34.2216 21.944 35.0257 21.9469 35.8279 21.951C36.7824 21.956 36.7075 22.6377 36.7145 23.3899C37.7471 23.3528 38.8361 23.3313 39.8671 23.4246C40.4219 23.4748 40.8545 23.7803 41.184 24.2153C41.3209 24.3963 41.5255 24.7668 41.5555 24.9951C41.6669 25.846 41.6273 26.8327 41.6272 27.7019C41.627 28.7153 41.6771 29.8242 41.5766 30.8182C41.5221 31.356 41.1379 31.9101 40.706 32.2065C40.5032 32.3455 40.1196 32.5069 39.8821 32.5267C39.1841 32.5847 37.1554 32.6479 36.5331 32.5488C36.4957 33.0246 36.3244 33.5101 36.1651 33.9571C35.6035 35.5327 34.6074 36.6016 33.3074 37.6057C31.6108 38.7635 30.2646 38.9403 28.2477 38.9612L24.8488 38.9641C24.0249 38.9635 23.1811 38.9794 22.3625 38.8864C20.6497 38.6869 19.054 37.9118 17.8339 36.6863C16.56 35.4127 15.7676 33.7324 15.593 31.9345C15.5028 31.0288 15.5415 29.8785 15.5478 28.9514C15.5568 27.5662 15.5564 26.1809 15.5467 24.7956C16.2934 24.8065 21.125 24.9128 21.5605 24.6725C21.7788 24.5521 21.8548 24.3247 21.9241 24.1014C21.8555 23.7247 21.7383 23.4585 21.3109 23.4011C20.6487 23.3123 19.9433 23.345 19.2731 23.3463C18.0275 23.346 16.7817 23.3559 15.5361 23.3758C15.5094 22.7424 15.4473 22.1729 16.1656 21.9547ZM36.7128 31.1839C37.4178 31.186 39.4424 31.287 39.969 31.0095C40.083 30.8871 40.1542 30.7704 40.1864 30.6034C40.2969 30.0318 40.2291 29.3354 40.2303 28.7512C40.232 27.7441 40.2583 26.7288 40.2261 25.7226C40.2173 25.4492 40.2163 25.1884 40.0053 24.984C39.6398 24.6301 37.2498 24.752 36.6758 24.7606C36.7733 26.8215 36.6212 29.099 36.7128 31.1839ZM28.9261 24.7751C29.6973 24.6476 29.845 24.0744 29.381 23.4903C28.7606 23.2962 27.5777 23.3425 26.9082 23.3595C25.8981 23.454 25.7532 24.7297 26.9707 24.7743C27.6324 24.7985 28.2463 24.8732 28.9261 24.7751ZM24.1258 24.7705C24.5099 24.7035 24.7676 24.3365 24.7018 23.9498C24.636 23.5634 24.2716 23.3034 23.8871 23.3687C23.5016 23.4342 23.2422 23.8022 23.3081 24.1898C23.3742 24.5776 23.7404 24.8377 24.1258 24.7705Z" fill="white"/>
<path d="M13.8179 3.52676C14.8893 3.46651 15.9609 3.64102 16.9585 4.03824C18.8989 4.79766 20.4551 6.30831 21.2785 8.23169C22.2422 10.4698 22.0406 12.4331 21.1742 14.6341C21.4488 15.0788 22.5256 17.334 22.6101 17.7953C22.4676 18.1846 22.3517 18.2674 21.9823 18.427C21.6288 18.4012 20.8555 18.2095 20.487 18.1224C19.8958 17.9826 19.203 17.8388 18.6245 17.6714C17.7693 18.2359 17.3673 18.4149 16.4039 18.7877C15.8675 18.9176 15.2545 19.0426 14.7035 19.0828C12.6781 19.2333 10.6767 18.5645 9.14342 17.2249C7.55656 15.8701 6.57905 13.9294 6.43145 11.8411C6.2973 9.79539 6.9657 7.77829 8.29325 6.22258C9.76275 4.53096 11.6019 3.67952 13.8179 3.52676ZM16.3158 14.174C17.2746 13.8445 17.0224 13.1977 16.4789 12.6194C15.9596 12.0671 15.3843 11.5571 14.8712 11.0086C14.8132 10.7056 14.8341 10.1164 14.8368 9.7854C14.8445 9.11423 14.8489 8.44304 14.8497 7.77183C14.8458 7.09114 14.9459 6.48124 14.1277 6.32895C13.657 6.4423 13.4333 6.64536 13.4335 7.1685C13.4349 8.59856 13.3726 10.0792 13.4822 11.5015C13.5092 11.8534 15.2692 13.4516 15.5945 13.7904C15.8226 14.0281 15.9938 14.1534 16.3158 14.174Z" fill="white"/>
<path d="M15.6461 40.356C16.7014 40.291 17.9167 40.3844 18.9897 40.3843L27.4045 40.3844L34.2385 40.3832C34.7948 40.3857 35.351 40.3845 35.9072 40.3795C37.6366 40.355 38.2208 40.0718 38.0787 42.099C38.053 43.1744 38.3444 44.5549 37.4998 45.4007C36.9917 45.9094 36.4294 46.0667 35.7331 46.0562C35.2102 46.0483 34.6813 46.0564 34.16 46.0564L29.6451 46.056L20.1163 46.0538L17.4886 46.0558C16.9768 46.0562 16.3549 46.0723 15.855 46.0105C15.544 45.972 15.0122 45.6792 14.781 45.4473C14.1261 44.79 14.1558 44.08 14.1492 43.2255C14.199 43.2287 14.2488 43.2312 14.2986 43.2333C15.4898 43.2777 16.9592 43.2292 18.187 43.2287L19.6984 43.2274C19.9614 43.227 20.2659 43.2372 20.5229 43.2103C20.8435 43.1767 21.1667 42.9112 21.1602 42.5678C21.1508 42.0697 20.9909 41.8542 20.4917 41.8164C19.7108 41.7571 18.9376 41.8016 18.1573 41.8069L14.1445 41.8091C14.0927 40.3995 14.3395 40.4128 15.6461 40.356ZM23.5127 43.1754C23.8782 43.0595 24.0821 42.6686 23.9693 42.3002C23.8564 41.9319 23.469 41.7243 23.1021 41.8354C22.7318 41.9476 22.5229 42.3415 22.6369 42.7133C22.7508 43.0851 23.1439 43.2924 23.5127 43.1754Z" fill="white"/>
<path d="M26.1299 9.21266C26.4155 9.2013 26.7148 9.20443 27.0013 9.20361L30.2803 9.20835C30.8202 9.20964 31.3918 9.18778 31.9288 9.24331C32.1978 9.26023 32.3877 9.54072 32.4489 9.78785C32.6957 10.784 31.0107 10.6061 30.4613 10.5981L27.9619 10.5704C27.2748 10.5606 26.7522 10.5247 26.04 10.6109C24.7743 10.7642 24.2731 12.083 25.1158 13.0171C25.6569 13.6168 27.3014 13.4483 28.1328 13.446C28.3328 13.4637 28.5431 13.4867 28.7017 13.6243C28.8982 13.7946 28.9079 14.0449 28.922 14.2888C28.9546 14.8512 29.0229 17.1817 28.7276 17.492C28.5924 17.6342 28.3915 17.695 28.1998 17.6948C28.0347 17.6945 27.8856 17.6081 27.772 17.4924C27.672 17.3904 27.6149 17.2724 27.581 17.1352C27.4564 16.6309 27.5253 15.4344 27.5418 14.8629C26.3386 14.8567 25.2293 14.9868 24.2389 14.1147C22.6772 12.7394 23.1959 10.0064 25.1822 9.35605C25.5109 9.24841 25.7868 9.23167 26.1299 9.21266Z" fill="white"/>
<path d="M35.1744 9.18226C36.2385 9.16814 37.3027 9.16352 38.367 9.16836C38.9897 9.16983 39.6825 9.16555 40.3022 9.22552C40.4887 9.24358 40.5863 9.29428 40.7395 9.3951C41.3407 10.4115 40.4963 10.5717 39.7161 10.5983C38.6694 10.5882 37.6226 10.5854 36.5759 10.5898C36.0774 10.5922 34.5672 10.6983 34.1073 10.4091C33.8484 10.2464 33.7682 9.71947 34.0522 9.46281C34.3981 9.15022 34.7245 9.198 35.1744 9.18226Z" fill="white"/>
<path d="M31.1833 12.0221C32.286 11.933 33.554 12.0527 34.6714 12.0595C35.3304 12.0635 35.6661 13.2772 34.5373 13.4407L32.4299 13.4474C31.7325 13.449 29.8669 13.6661 30.4803 12.3166C30.5664 12.1271 30.995 12.0406 31.1833 12.0221Z" fill="white"/>
<path d="M40.0201 12.0593C40.2611 11.985 40.5231 12.0466 40.7063 12.2207C40.8895 12.3948 40.9653 12.6546 40.9051 12.9006C40.8448 13.1468 40.6576 13.3413 40.415 13.41C40.046 13.5144 39.6621 13.3008 39.554 12.9309C39.4458 12.561 39.6536 12.1724 40.0201 12.0593Z" fill="white"/>
<path d="M37.1933 12.0616C37.4321 11.9845 37.6938 12.0436 37.8769 12.2159C38.0602 12.3882 38.1363 12.6468 38.076 12.8917C38.0157 13.1366 37.8282 13.3294 37.5862 13.3957C37.2233 13.495 36.8479 13.2846 36.7411 12.9218C36.6342 12.5591 36.8351 12.177 37.1933 12.0616Z" fill="white"/>
<path d="M28.068 19.1505C28.4352 19.0597 28.8065 19.2842 28.899 19.653C28.9915 20.022 28.7704 20.3968 28.4042 20.4919C28.2058 20.5436 27.9948 20.5034 27.8289 20.3826C27.6629 20.2616 27.5591 20.0726 27.5459 19.8669C27.5243 19.5324 27.7443 19.2305 28.068 19.1505Z" fill="white"/>
</g>
<defs>
<filter id="filter0_d_239_11" x="-4" y="0" width="55" height="60" filterUnits="userSpaceOnUse" color-interpolation-filters="sRGB">
<feFlood flood-opacity="0" result="BackgroundImageFix"/>
<feColorMatrix in="SourceAlpha" type="matrix" values="0 0 0 0 0 0 0 0 0 0 0 0 0 0 0 0 0 0 127 0" result="hardAlpha"/>
<feOffset dy="4"/>
<feGaussianBlur stdDeviation="2"/>
<feComposite in2="hardAlpha" operator="out"/>
<feColorMatrix type="matrix" values="0 0 0 0 0 0 0 0 0 0 0 0 0 0 0 0 0 0 0.5 0"/>
<feBlend mode="normal" in2="BackgroundImageFix" result="effect1_dropShadow_239_11"/>
<feBlend mode="normal" in="SourceGraphic" in2="effect1_dropShadow_239_11" result="shape"/>
</filter>
</defs>
</svg>
