<?xml version="1.0" standalone="no"?>
<!DOCTYPE svg PUBLIC "-//W3C//DTD SVG 20010904//EN" "http://www.w3.org/TR/2001/REC-SVG-20010904/DTD/svg10.dtd">
<!-- Created using Krita: https://krita.org -->
<svg xmlns="http://www.w3.org/2000/svg" 
    xmlns:xlink="http://www.w3.org/1999/xlink"
    xmlns:krita="http://krita.org/namespaces/svg/krita"
    xmlns:sodipodi="http://sodipodi.sourceforge.net/DTD/sodipodi-0.dtd"
    width="283.374pt"
    height="283.374pt"
    viewBox="0 0 283.374 283.374">
<defs/>
<path id="shape0" transform="matrix(1.7704656 0 0 1.7716392 9.84845538759459 8.95923024365814)" fill="#700000" stroke-opacity="0" stroke="#000000" stroke-width="0" stroke-linecap="square" stroke-linejoin="bevel" d="M21.2557 0.239258C25.5012 -0.315252 33.1044 0.262738 37.6074 0.299908L67.5261 0.328378L106.806 0.359168C114.933 0.349528 124.342 0.0189588 132.333 1.01706C139.506 1.91284 147.585 10.9711 147.883 18.1687C148.15 24.6401 148.044 31.5942 148.033 38.2233L148.014 76.2883L148.089 112.337C148.098 116.957 148.374 127.006 147.856 131.21C147.451 134.623 146.064 137.846 143.865 140.487C139.519 145.679 134.214 147.768 127.696 148.333C121.241 148.447 114.386 148.154 107.848 148.146L54.8444 148.144L29.5417 148.169C21.2642 148.176 13.9116 149.42 7.25376 143.314C2.72976 139.164 0.884262 135.609 0.497662 129.494C-0.0466381 120.885 0.113662 112.304 0.123762 103.687L0.129262 64.3544L0.120162 35.2835C0.117962 26.5197 -1.19474 14.6252 4.91016 7.79614C9.48816 2.67512 14.5778 0.764158 21.2557 0.239258ZM5.47346 109.812C6.74456 109.242 7.73546 108.62 8.89116 107.867C16.9671 102.603 24.786 96.9516 32.8886 91.7284C27.254 84.9908 24.311 74.1699 25.4169 65.6161C26.0881 60.4244 27.0252 55.614 27.351 50.3844C28.2456 41.6586 34.3037 35.5512 40.6604 30.2405C43.0041 28.2824 44.9134 25.6849 47.3477 23.6494C52.4644 19.3711 56.5333 18.9658 62.653 17.3514C67.9152 15.9632 73.0553 13.5822 78.7727 14.2332C84.8284 15.4127 90.1214 17.0523 96.3264 17.8989C102.34 18.7195 107.106 25.2541 111.472 28.4455C118.287 33.4271 121.481 34.3304 124.319 43.1063C122.089 41.9862 120.18 41.1684 117.894 39.7411C116.806 39.0616 110.452 32.6892 109.495 33.047C108.144 33.5521 106.604 37.5282 103.826 35.9695C103.423 35.7903 103.066 35.5809 102.829 35.156C102.685 33.5842 105.069 30.4789 104.804 29.9149C102.751 25.5339 94.4404 22.9615 90.2634 21.6249C90.7584 25.6864 91.4034 32.456 91.0404 36.5436C89.4404 38.2961 88.8294 38.5652 86.6044 39.4336C86.4074 35.53 86.2934 29.5444 85.8764 25.7758C85.7704 24.4327 85.5624 22.5268 85.5704 21.2215C77.1424 19.4156 76.0954 18.606 67.4082 21.0973L77.6613 37.0642C78.8863 38.9869 81.4782 42.7175 82.2711 44.563C84.0314 43.2912 86.5094 40.8404 88.2214 39.9464C89.8694 39.0853 95.6864 39.3495 97.7524 39.1672C100.299 38.9426 102.729 38.3294 105.231 38.4502C107.381 38.8738 110.045 40.4329 112.244 41.1917C115.166 42.2002 120.592 42.0068 122.413 44.6668C124.085 47.1098 124.406 50.7165 123.9 53.5373C123.159 58.328 120.454 60.5294 118.259 64.2008C120.664 65.0136 124.295 65.9583 126.816 66.5103C126.475 63.8999 125.966 51.2315 127.117 49.3364L127.514 49.1776C128.445 49.996 130.243 54.635 130.714 56.0179C132.498 61.1179 131.579 66.9219 131.765 71.9713C132.128 81.787 129.083 86.1239 125.043 94.0522C119.623 104.689 115.27 107.685 104.848 112.87C100.787 114.89 97.1894 118.264 91.9194 118.094C88.9914 118.157 86.0854 118.128 83.1454 118.091C81.1977 121.102 79.2707 122.983 77.4316 125.631C78.5929 127.257 82.2303 132.495 83.9424 132.908L84.0784 132.942C85.1274 133.191 87.3424 133.111 88.2844 133.075C95.0084 132.817 99.6434 134.243 102.287 140.875C102.603 141.279 103 142.793 103.591 142.729C113.862 141.611 126.691 145.526 136.061 140.215C144.656 135.343 142.357 120.234 142.326 111.975L142.35 78.9488C142.319 66.7957 142.394 54.6427 142.574 42.4909C142.628 35.5111 142.713 28.4803 142.46 21.5757C141.849 4.84884 126.776 5.31834 114.22 5.65364C112.097 5.71024 109.834 5.68634 107.685 5.76554C100.303 6.04724 92.0084 5.86514 84.5574 5.86624L43.2285 5.85334L28.4548 5.84254C21.3482 5.84154 14.9186 5.23524 9.52716 10.9679C5.00326 15.7781 5.69946 22.2047 5.73776 28.3232L5.82296 42.2463L5.74526 83.1308C5.75096 91.3247 6.11626 101.883 5.47346 109.812ZM31.9401 56.1304L61.9524 56.1316C65.1286 56.1396 68.8505 56.0643 71.9825 56.1763C72.277 54.5199 72.4636 53.8786 73.0365 52.2928L54.0016 41.1171C52.4562 40.192 44.1127 34.8176 43.2355 34.7975C35.5692 40.0316 32.2135 46.9579 31.9401 56.1304ZM59.2917 127.489C61.1689 130.756 70.6921 141.297 74.5571 142.98C75.7416 143.495 82.8951 143.067 84.5754 143.093C84.8274 143.097 84.9814 142.305 84.9964 142.062C85.6034 140.295 85.6174 139.885 86.8164 138.416C86.2094 137.937 81.7518 138.389 81.2226 137.971C77.6636 135.163 73.0549 129.608 71.8802 125.222C71.5468 123.977 75.2032 120.367 76.0718 119.161C70.7044 120.137 69.0384 119.784 64.0501 118.018C62.4065 122.137 60.2161 122.665 59.2917 127.489ZM111.447 103.344C115.618 100.747 118.213 97.0206 119.858 92.4649C116.782 90.1146 106.294 79.1075 104.435 78.2156C102.775 80.8142 100.4 83.2907 99.0744 85.5895C100.766 89.9425 105.574 102.174 106.084 106.171C108.282 105.159 109.414 104.66 111.447 103.344ZM67.8035 43.186C69.853 44.466 75.5831 49.0829 77.5166 47.0808C77.5327 46.9353 77.5547 46.7361 77.5826 46.4832C73.0649 38.4981 67.8914 30.8104 62.9491 23.0817C62.73 22.7391 62.5808 22.7548 62.3388 22.6752C58.9635 23.6356 47.8524 27.0675 47.2471 30.8548C47.7558 31.8156 51.7342 33.4378 53.0027 34.1925C57.9963 37.1634 62.7537 40.295 67.8035 43.186ZM59.4229 116.041C54.4286 113.32 49.3305 111.53 44.3579 108.479C41.714 106.856 35.2582 97.3036 34.8941 97.1906C30.3277 99.3816 21.8864 105.896 17.1674 108.973C13.815 111.158 8.63126 114.174 5.65756 116.303C4.43646 122.593 5.41506 131.598 8.65606 137.287C9.89846 139.468 11.9689 138.493 13.9071 137.947C15.0801 136.044 18.9102 126.699 21.3624 132.817C22.1514 134.786 18.2609 141.205 17.4529 143.2C21.1139 142.806 25.0231 142.606 28.6106 142.747C30.4485 142.819 35.5964 129.137 36.2296 126.754C35.5949 124.275 34.6737 121.635 31.9857 120.683C26.8238 119.873 21.8794 122.518 16.9952 123.289C12.2608 124.037 12.7868 119.023 16.9964 117.853C24.0364 115.896 34.1461 112.043 39.1617 119.755C41.0741 122.76 41.7047 126.406 40.9127 129.88C40.64 131.1 40.3178 132.308 39.9469 133.502C41.5502 134.058 45.6583 130.859 46.9028 130.473C54.4661 128.125 55.3478 122.493 59.4229 116.041ZM87.3794 138.226C87.7854 138.58 88.1734 138.871 88.6544 139.105C91.1874 140.334 93.3084 142.803 96.2604 143.022C96.7554 143.059 97.0894 143.129 97.5814 142.962C95.8234 138.899 91.3584 137.858 87.3794 138.226ZM36.8645 139.335C36.1832 140.264 34.9309 141.664 35.0902 142.765C39.3117 142.631 43.4196 142.611 47.6369 142.564C53.8347 142.518 61.6127 142.202 67.5255 143.377C64.6855 141.398 58.2796 134.901 55.7084 131.967C55.6792 131.934 55.2497 131.891 55.178 131.879C50.5327 134.95 47.3314 136.593 41.8755 138.132C40.3636 138.558 38.1798 138.937 36.8645 139.335ZM92.8504 44.911C89.3284 45.6919 86.6244 47.973 83.5944 49.7546C82.1974 50.5761 80.597 51.2248 79.3174 52.2195C78.6175 52.7636 78.0162 53.4523 77.5374 54.1962C74.2663 59.2791 76.8417 65.8126 74.4921 70.045C72.7638 73.1582 44.5156 89.6353 39.3738 93.3452C42.3053 99.9306 47.6489 105.514 54.4782 108.037C55.0694 108.249 55.6742 108.421 56.2886 108.551C60.4016 102.169 64.8038 96.0016 68.8702 89.5592C72.3917 84.2682 75.5365 78.4788 79.5728 73.5632C81.9922 70.9226 88.3554 73.0528 91.1514 71.6857C93.0824 70.7413 96.0604 68.9139 97.8884 67.767C101.501 65.5 104.114 68.5518 102.019 70.7503C98.8284 74.0981 92.5434 77.2062 87.8834 77.6889C85.8834 77.9055 84.4494 77.7348 82.6424 77.5131C79.8805 81.8301 61.3905 108.877 61.1288 111.294C62.2658 112.827 68.1343 114.178 70.0042 114.537C77.7067 110.102 82.0133 87.851 87.3524 80.335C88.1104 79.2673 90.2764 76.5528 91.9774 78.8529C92.8224 81.2 88.3244 89.6602 87.4354 91.8371C84.4704 99.0996 82.0402 108.019 77.213 114.175C87.5394 109.035 86.8924 101.759 90.9264 92.1469C93.3724 86.3183 95.8224 80.4955 100.035 75.7148C102.531 72.6513 116.466 59.2988 117.339 56.7946C116.736 56.6772 102.058 62.9523 100.134 63.4469C98.5144 63.8635 94.7054 66.0988 92.7354 66.2677C89.9614 65.716 90.5384 63.0265 92.6874 61.9414C98.8264 58.8417 105.055 56.7459 111.423 54.1343C113.201 53.4052 118.495 52.0971 119.222 50.2221C119.793 48.752 117.979 47.8625 116.831 47.83C110.329 46.9295 99.1614 44.3049 92.8504 44.911ZM108.355 74.7317C112.92 79.7045 117.168 82.5217 121.94 88.3208L122.324 88.6003C124.408 87.366 127.941 74.933 126.244 72.0264C126.372 72.1082 114.119 68.2642 114.305 68.2677C112.644 69.89 109.422 72.8866 108.355 74.7317ZM96.1764 92.5065C92.7344 99.8926 92.6574 105.353 87.3664 113.488C89.3964 113.285 91.5624 113.142 93.5194 112.597C97.3924 111.967 99.1584 111.254 102.36 108.832C101.614 106.915 96.7814 92.9799 96.1764 92.5065ZM31.0455 60.9557C29.1246 72.5706 30.0053 78.8059 36.6436 89.0064C38.747 87.9434 41.2104 86.0624 43.274 84.7087L56.7062 75.9105C60.7618 73.3167 66.2824 70.2706 70.0261 67.6939C70.4343 65.5506 70.549 63.2004 70.7114 61.0143C67.0469 61.273 63.0655 61.021 59.3791 61.1067C50.1041 61.3224 40.2482 60.7705 31.0455 60.9557Z" sodipodi:nodetypes="ccccccccccccccccccccccccccccccccccccccccccccccccccccccccccccccccccccccccccccccccccccccccccccccccccccccccccccccccccccccccccccccccccccccccccccccccccccccccccccccccccccccccccccccccccccccccccccccccccccc"/><path id="shape1" transform="matrix(1.7704656 0 0 1.7716392 165.585109287815 90.2904475348345)" fill="#700000" stroke-opacity="0" stroke="#000000" stroke-width="0" stroke-linecap="square" stroke-linejoin="bevel" d="M5.6467 0.00921329C6.9467 -0.0819867 8.2277 0.522313 9.4077 1.00701C12.8467 5.98251 11.2647 9.70501 5.6037 11.4616C5.0517 11.2012 4.4667 10.9638 3.9287 10.6766C-1.9603 7.53631 -1.1003 1.38781 5.6467 0.00921329Z" sodipodi:nodetypes="ccccc"/><path id="shape2" transform="matrix(1.7704656 0 0 1.7716392 202.224770575532 92.6155703630977)" fill="#700000" stroke-opacity="0" stroke="#000000" stroke-width="0" stroke-linecap="square" stroke-linejoin="bevel" d="M0.948761 0C4.51576 0.2207 4.03376 3.0347 2.65076 5.3159C2.23376 5.3496 1.53576 5.1821 1.18576 4.9754C0.649761 4.6578 0.264761 4.1366 0.119761 3.5307C-0.223239 2.077 0.206761 1.1539 0.948761 0Z" sodipodi:nodetypes="ccccc"/><path id="shape3" transform="matrix(1.7704656 0 0 1.7716392 63.2328713676524 116.88229611211)" fill="#fdfdfc" fill-opacity="0.00784313725490196" stroke-opacity="0" stroke="#000000" stroke-width="0" stroke-linecap="square" stroke-linejoin="bevel" d="M0.892707 0.0386706C10.0954 -0.14653 19.9513 0.40537 29.2263 0.18967C32.9127 0.10397 36.8941 0.35597 40.5586 0.0972706C40.3962 2.28337 40.2815 4.63357 39.8733 6.77687C36.1296 9.35357 30.609 12.3997 26.5534 14.9935L13.1212 23.7917C11.0576 25.1454 8.5942 27.0264 6.4908 28.0894C-0.147493 17.8889 -1.0282 11.6536 0.892707 0.0386706Z" sodipodi:nodetypes="cccccccc"/>
</svg>
